<svg xmlns="http://www.w3.org/2000/svg" version="1.1" xmlns:xlink="http://www.w3.org/1999/xlink" xmlns:svgjs="http://svgjs.com/svgjs" width="948" height="948"><svg width="948" height="948" viewBox="0 0 948 948" fill="none" xmlns="http://www.w3.org/2000/svg">
<path d="M413.141 611L392 642.969L474 735L556 642.969L534.859 611H413.141Z" fill="white" style="--darkreader-inline-fill: #181a1b;" data-darkreader-inline-fill=""></path>
<path fill-rule="evenodd" clip-rule="evenodd" d="M474 4C214.426 4 4 214.426 4 474C4 733.574 214.426 944 474 944C733.574 944 944 733.574 944 474C944 214.426 733.574 4 474 4ZM44 474C44 333.32 111.558 208.418 216 129.969V657.131L473.983 855.202L732 657.659V129.969C836.442 208.418 904 333.32 904 474C904 711.482 711.482 904 474 904C236.518 904 44 711.482 44 474ZM222.829 124.943C293.491 74.0077 380.241 44 474 44C567.759 44 654.509 74.0077 725.171 124.943L543.371 399.137H404.629L222.829 124.943ZM256 637.412V247.357L383.157 439.137H564.843L692 247.357V637.907L474.017 804.798L256 637.412Z" fill="white" style="--darkreader-inline-fill: #181a1b;" data-darkreader-inline-fill=""></path>
<path d="M413.141 611L392 642.969L474 735L556 642.969L534.859 611H413.141Z" stroke="black" stroke-width="8" style="--darkreader-inline-stroke: #e8e6e3;" data-darkreader-inline-stroke=""></path>
<path fill-rule="evenodd" clip-rule="evenodd" d="M474 4C214.426 4 4 214.426 4 474C4 733.574 214.426 944 474 944C733.574 944 944 733.574 944 474C944 214.426 733.574 4 474 4ZM44 474C44 333.32 111.558 208.418 216 129.969V657.131L473.983 855.202L732 657.659V129.969C836.442 208.418 904 333.32 904 474C904 711.482 711.482 904 474 904C236.518 904 44 711.482 44 474ZM222.829 124.943C293.491 74.0077 380.241 44 474 44C567.759 44 654.509 74.0077 725.171 124.943L543.371 399.137H404.629L222.829 124.943ZM256 637.412V247.357L383.157 439.137H564.843L692 247.357V637.907L474.017 804.798L256 637.412Z" stroke="black" stroke-width="8" style="--darkreader-inline-stroke: #e8e6e3;" data-darkreader-inline-stroke=""></path>
</svg><style>@media (prefers-color-scheme: light) { :root { filter: contrast(1) brightness(0.5); } }
@media (prefers-color-scheme: dark) { :root { filter: contrast(0.3846153846153846) brightness(4.5); } }
</style></svg>