<svg width="4755" height="1000" viewBox="0 0 4755 1000" fill="none" xmlns="http://www.w3.org/2000/svg">
<path d="M959 500C959 748.528 757.528 950 509 950C260.472 950 59 748.528 59 500C59 251.472 260.472 50 509 50C757.528 50 959 251.472 959 500Z" stroke="white" stroke-width="40"/>
<path d="M747 207L589.107 445.137H428.893L271 207V673.272L509 856L747 673.783V207Z" stroke="white" stroke-width="40"/>
<path d="M427 668.969L448.141 637H569.859L591 668.969L509 761L427 668.969Z" fill="white"/>
<path d="M1509.65 515.444C1509.65 502.409 1505.05 492.442 1495.85 485.541C1486.65 478.487 1470.1 471.126 1446.18 463.459C1422.26 455.638 1403.33 447.971 1389.38 440.457C1351.36 419.908 1332.35 392.229 1332.35 357.42C1332.35 339.325 1337.41 323.223 1347.53 309.115C1357.8 294.854 1372.44 283.736 1391.45 275.762C1410.61 267.788 1432.07 263.801 1455.84 263.801C1479.75 263.801 1501.06 268.172 1519.77 276.912C1538.47 285.5 1552.96 297.691 1563.23 313.486C1573.65 329.28 1578.87 347.222 1578.87 367.31H1509.88C1509.88 351.976 1505.05 340.091 1495.39 331.657C1485.73 323.07 1472.16 318.776 1454.69 318.776C1437.82 318.776 1424.72 322.38 1415.36 329.587C1406.01 336.641 1401.34 345.995 1401.34 357.65C1401.34 368.537 1406.78 377.661 1417.66 385.022C1428.7 392.383 1444.88 399.283 1466.19 405.724C1505.43 417.532 1534.02 432.176 1551.96 449.658C1569.9 467.139 1578.87 488.915 1578.87 514.984C1578.87 543.966 1567.91 566.738 1545.98 583.3C1524.06 599.708 1494.55 607.912 1457.45 607.912C1431.69 607.912 1408.24 603.235 1387.08 593.881C1365.92 584.373 1349.75 571.415 1338.56 555.007C1327.52 538.599 1322 519.584 1322 497.962H1391.22C1391.22 534.919 1413.29 553.397 1457.45 553.397C1473.85 553.397 1486.65 550.1 1495.85 543.506C1505.05 536.759 1509.65 527.405 1509.65 515.444Z" fill="white"/>
<path d="M1845.39 481.171C1845.39 519.507 1836.65 550.253 1819.18 573.409C1801.85 596.411 1778.4 607.912 1748.81 607.912C1723.67 607.912 1703.35 599.171 1687.87 581.69V699H1621.41V354.429H1683.04L1685.34 378.811C1701.44 359.49 1722.44 349.829 1748.35 349.829C1779.01 349.829 1802.85 361.177 1819.87 383.872C1836.88 406.567 1845.39 437.85 1845.39 477.72V481.171ZM1778.93 476.34C1778.93 453.185 1774.79 435.32 1766.52 422.745C1758.39 410.171 1746.51 403.884 1730.87 403.884C1710.02 403.884 1695.69 411.858 1687.87 427.806V529.705C1695.99 546.113 1710.48 554.317 1731.33 554.317C1763.07 554.317 1778.93 528.325 1778.93 476.34Z" fill="white"/>
<path d="M2030.97 603.311C2027.91 597.331 2025.68 589.894 2024.3 580.999C2008.21 598.941 1987.28 607.912 1961.52 607.912C1937.15 607.912 1916.91 600.858 1900.81 586.75C1884.87 572.642 1876.9 554.854 1876.9 533.385C1876.9 507.01 1886.63 486.768 1906.1 472.66C1925.73 458.552 1954.01 451.421 1990.96 451.268H2021.54V437.007C2021.54 425.506 2018.55 416.305 2012.57 409.404C2006.75 402.504 1997.47 399.053 1984.75 399.053C1973.56 399.053 1964.74 401.737 1958.3 407.104C1952.02 412.471 1948.87 419.832 1948.87 429.186H1882.42C1882.42 414.771 1886.86 401.43 1895.75 389.162C1904.65 376.895 1917.22 367.31 1933.47 360.41C1949.72 353.356 1967.96 349.829 1988.2 349.829C2018.86 349.829 2043.16 357.573 2061.1 373.061C2079.19 388.396 2088.23 410.018 2088.23 437.927V545.806C2088.38 569.422 2091.68 587.287 2098.12 599.401V603.311H2030.97ZM1976.01 557.077C1985.82 557.077 1994.87 554.93 2003.15 550.637C2011.42 546.19 2017.56 540.286 2021.54 532.925V490.141H1996.71C1963.44 490.141 1945.73 501.642 1943.59 524.644L1943.36 528.555C1943.36 536.836 1946.27 543.659 1952.09 549.027C1957.92 554.394 1965.89 557.077 1976.01 557.077Z" fill="white"/>
<path d="M2242.77 554.317C2255.03 554.317 2265 550.943 2272.66 544.196C2280.33 537.449 2284.31 528.478 2284.62 517.284H2346.94C2346.79 534.152 2342.19 549.64 2333.14 563.748C2324.1 577.703 2311.68 588.59 2295.89 596.411C2280.25 604.078 2262.93 607.912 2243.92 607.912C2208.35 607.912 2180.29 596.641 2159.75 574.099C2139.21 551.404 2128.93 520.121 2128.93 480.251V475.88C2128.93 437.543 2139.13 406.951 2159.52 384.102C2179.91 361.253 2207.89 349.829 2243.46 349.829C2274.58 349.829 2299.49 358.723 2318.19 376.511C2337.05 394.146 2346.63 417.685 2346.94 447.128H2284.62C2284.31 434.246 2280.33 423.819 2272.66 415.845C2265 407.717 2254.88 403.654 2242.31 403.654C2226.82 403.654 2215.09 409.328 2207.12 420.675C2199.3 431.87 2195.39 450.118 2195.39 475.42V482.321C2195.39 507.93 2199.3 526.331 2207.12 537.526C2214.94 548.72 2226.82 554.317 2242.77 554.317Z" fill="white"/>
<path d="M2499.4 607.912C2462.92 607.912 2433.17 596.718 2410.18 574.329C2387.33 551.94 2375.91 522.114 2375.91 484.851V478.41C2375.91 453.415 2380.74 431.103 2390.4 411.474C2400.06 391.693 2413.7 376.511 2431.33 365.93C2449.12 355.196 2469.35 349.829 2492.04 349.829C2526.08 349.829 2552.83 360.563 2572.3 382.032C2591.92 403.5 2601.74 433.94 2601.74 473.35V500.492H2443.29C2445.44 516.747 2451.88 529.782 2462.61 539.596C2473.49 549.41 2487.21 554.317 2503.77 554.317C2529.37 554.317 2549.38 545.04 2563.79 526.485L2596.45 563.058C2586.48 577.166 2572.99 588.207 2555.97 596.181C2538.96 604.002 2520.1 607.912 2499.4 607.912ZM2491.81 403.654C2478.63 403.654 2467.9 408.101 2459.62 416.995C2451.49 425.889 2446.28 438.617 2443.98 455.178H2536.43V449.888C2536.12 435.166 2532.13 423.819 2524.47 415.845C2516.8 407.717 2505.92 403.654 2491.81 403.654Z" fill="white"/>
<path d="M2845.49 466.449H2713.04V603.311H2644.05V268.402H2862.05V324.297H2713.04V410.784H2845.49V466.449Z" fill="white"/>
<path d="M2882.29 476.57C2882.29 451.881 2887.04 429.876 2896.55 410.554C2906.05 391.233 2919.7 376.281 2937.48 365.7C2955.42 355.119 2976.19 349.829 2999.8 349.829C3033.37 349.829 3060.74 360.103 3081.9 380.652C3103.2 401.2 3115.09 429.109 3117.54 464.379L3118 481.401C3118 519.584 3107.34 550.253 3086.03 573.409C3064.72 596.411 3036.13 607.912 3000.26 607.912C2964.38 607.912 2935.72 596.411 2914.25 573.409C2892.94 550.407 2882.29 519.124 2882.29 479.56V476.57ZM2948.75 481.401C2948.75 505.016 2953.19 523.111 2962.09 535.685C2970.98 548.107 2983.7 554.317 3000.26 554.317C3016.36 554.317 3028.93 548.183 3037.97 535.915C3047.02 523.494 3051.54 503.713 3051.54 476.57C3051.54 453.415 3047.02 435.473 3037.97 422.745C3028.93 410.018 3016.2 403.654 2999.8 403.654C2983.55 403.654 2970.98 410.018 2962.09 422.745C2953.19 435.32 2948.75 454.872 2948.75 481.401Z" fill="white"/>
<path d="M3248.62 428.726L3290.47 354.429H3361.53L3290.7 476.34L3364.52 603.311H3293.23L3248.85 525.105L3204.69 603.311H3133.18L3206.99 476.34L3136.4 354.429H3207.68L3248.62 428.726Z" fill="white"/>
<path d="M3466.85 547.877H3613.34V603.311H3397.86V268.402H3466.85V547.877Z" fill="white"/>
<path d="M3792.94 603.311C3789.87 597.331 3787.65 589.894 3786.27 580.999C3770.17 598.941 3749.24 607.912 3723.49 607.912C3699.11 607.912 3678.88 600.858 3662.78 586.75C3646.83 572.642 3638.86 554.854 3638.86 533.385C3638.86 507.01 3648.6 486.768 3668.07 472.66C3687.69 458.552 3715.98 451.421 3752.92 451.268H3783.51V437.007C3783.51 425.506 3780.52 416.305 3774.54 409.404C3768.71 402.504 3759.44 399.053 3746.71 399.053C3735.52 399.053 3726.71 401.737 3720.27 407.104C3713.98 412.471 3710.84 419.832 3710.84 429.186H3644.38C3644.38 414.771 3648.83 401.43 3657.72 389.162C3666.61 376.895 3679.18 367.31 3695.43 360.41C3711.68 353.356 3729.93 349.829 3750.16 349.829C3780.82 349.829 3805.12 357.573 3823.06 373.061C3841.15 388.396 3850.2 410.018 3850.2 437.927V545.806C3850.35 569.422 3853.65 587.287 3860.08 599.401V603.311H3792.94ZM3737.98 557.077C3747.79 557.077 3756.83 554.93 3765.11 550.637C3773.39 546.19 3779.52 540.286 3783.51 532.925V490.141H3758.67C3725.4 490.141 3707.7 501.642 3705.55 524.644L3705.32 528.555C3705.32 536.836 3708.23 543.659 3714.06 549.027C3719.89 554.394 3727.86 557.077 3737.98 557.077Z" fill="white"/>
<path d="M4125.46 481.171C4125.46 521.041 4116.95 552.17 4099.93 574.559C4082.92 596.794 4059.15 607.912 4028.65 607.912C4001.66 607.912 3980.12 597.561 3964.03 576.859L3961.04 603.311H3901.25V250H3967.71V376.741C3983.04 358.8 4003.2 349.829 4028.19 349.829C4058.54 349.829 4082.3 361.023 4099.47 383.412C4116.8 405.647 4125.46 437.007 4125.46 477.49V481.171ZM4059 476.34C4059 451.191 4055.02 432.866 4047.04 421.365C4039.07 409.711 4027.19 403.884 4011.4 403.884C3990.24 403.884 3975.68 412.548 3967.71 429.876V528.095C3975.83 545.576 3990.55 554.317 4011.86 554.317C4033.32 554.317 4047.43 543.736 4054.17 522.574C4057.39 512.453 4059 497.042 4059 476.34Z" fill="white"/>
<path d="M4301.38 534.535C4301.38 526.408 4297.32 520.044 4289.19 515.444C4281.22 510.69 4268.34 506.473 4250.56 502.793C4191.38 490.371 4161.79 465.223 4161.79 427.346C4161.79 405.264 4170.92 386.862 4189.16 372.141C4207.56 357.266 4231.55 349.829 4261.14 349.829C4292.72 349.829 4317.94 357.266 4336.8 372.141C4355.81 387.016 4365.31 406.337 4365.31 430.106H4298.85C4298.85 420.599 4295.79 412.778 4289.65 406.644C4283.52 400.357 4273.94 397.213 4260.91 397.213C4249.72 397.213 4241.05 399.743 4234.92 404.804C4228.79 409.864 4225.72 416.305 4225.72 424.126C4225.72 431.486 4229.17 437.467 4236.07 442.067C4243.12 446.514 4254.93 450.425 4271.49 453.798C4288.04 457.018 4301.99 460.699 4313.34 464.839C4348.45 477.72 4366 500.032 4366 531.775C4366 554.47 4356.27 572.872 4336.8 586.98C4317.32 600.935 4292.18 607.912 4261.37 607.912C4240.52 607.912 4221.97 604.232 4205.72 596.871C4189.62 589.357 4176.97 579.159 4167.77 566.278C4158.57 553.244 4153.98 539.212 4153.98 524.184H4216.99C4217.6 535.992 4221.97 545.04 4230.09 551.327C4238.22 557.614 4249.1 560.758 4262.75 560.758C4275.47 560.758 4285.05 558.381 4291.49 553.627C4298.08 548.72 4301.38 542.356 4301.38 534.535Z" fill="white"/>
</svg>
